<svg width="35" height="35" viewBox="0 0 35 35" fill="none" xmlns="http://www.w3.org/2000/svg">
<mask id="mask0_501_3529" style="mask-type:alpha" maskUnits="userSpaceOnUse" x="0" y="0" width="35" height="35">
<rect width="35" height="35" fill="#D9D9D9"/>
</mask>
<g mask="url(#mask0_501_3529)">
<path d="M27.7084 11.667C26.4931 11.667 25.4601 11.2416 24.6094 10.391C23.7587 9.54026 23.3334 8.50727 23.3334 7.29199C23.3334 6.07671 23.7587 5.04373 24.6094 4.19303C25.4601 3.34234 26.4931 2.91699 27.7084 2.91699C28.9236 2.91699 29.9566 3.34234 30.8073 4.19303C31.658 5.04373 32.0834 6.07671 32.0834 7.29199C32.0834 8.50727 31.658 9.54026 30.8073 10.391C29.9566 11.2416 28.9236 11.667 27.7084 11.667ZM5.83335 29.167C5.03127 29.167 4.34464 28.8814 3.77346 28.3102C3.20228 27.739 2.91669 27.0524 2.91669 26.2503V8.75033C2.91669 7.94824 3.20228 7.26161 3.77346 6.69043C4.34464 6.11925 5.03127 5.83366 5.83335 5.83366H20.5625C20.4653 6.31977 20.4167 6.80588 20.4167 7.29199C20.4167 7.7781 20.4653 8.26421 20.5625 8.75033C20.7327 9.5281 21.0122 10.2512 21.4011 10.9196C21.79 11.588 22.2639 12.1774 22.8229 12.6878L17.5 16.042L5.83335 8.75033V11.667L17.5 18.9587L25.1927 14.1462C25.6059 14.292 26.0191 14.4014 26.4323 14.4743C26.8455 14.5472 27.2709 14.5837 27.7084 14.5837C28.4861 14.5837 29.2518 14.4621 30.0052 14.2191C30.7587 13.976 31.4514 13.6114 32.0834 13.1253V26.2503C32.0834 27.0524 31.7978 27.739 31.2266 28.3102C30.6554 28.8814 29.9688 29.167 29.1667 29.167H5.83335Z" fill="url(#paint0_linear_501_3529)"/>
</g>
<defs>
<linearGradient id="paint0_linear_501_3529" x1="4.37502" y1="3.62773" x2="35.8626" y2="21.9753" gradientUnits="userSpaceOnUse">
<stop stop-color="#FEDEF3"/>
<stop offset="0.5" stop-color="#EADAFF"/>
<stop offset="1" stop-color="#B6E9FF"/>
</linearGradient>
</defs>
</svg>
